#!OML:ASF I:\Actors\actors\Patient Classification 2\Patient 1\Session 1\actor1.ASF
:FULLY-SPECIFIED
:DEGREES
413
root -0.729279 18.835 5.32723 7.02497 -1.3783 -1.531
lowerback 10.3783 0.588784 0.110275
upperback 4.86922 0.821196 2.11192
thorax -0.784593 0.387609 2.03371
lowerneck -17.8756 -2.70283 -3.73674
upperneck 27.7156 -2.94262 0.844169
head 12.1799 -1.58983 0.496229
rclavicle -6.16232e-015 4.77083e-015
rhumerus 3.68021 18.3599 -96.1801
rradius 62.8321
rwrist -18.8853
rhand -43.1992 -50.7023
rfingers 7.12502
rthumb -16.0502 279.942
lclavicle -6.16232e-015 4.77083e-015
lhumerus 4.76626 -16.2962 104.055
lradius 59.3131
lwrist -10.1198
lhand -36.6548 -73.7969
lfingers 7.12502
lthumb -9.7416 -44.0422
rfemur 0 0 0
rtibia 0
rfoot 0 0
rtoes 0
lfemur -11.4161 -6.97263 -11.8359
ltibia 21.5427
lfoot -22.1716 16.8517
ltoes -53.7555
414
root -0.728035 18.8338 5.32816 6.98231 -1.39726 -1.53384
lowerback 10.2899 0.606518 0.0862196
upperback 4.78592 0.84252 2.08149
thorax -0.8236 0.398839 2.01352
lowerneck -17.8855 -2.72113 -3.74911
upperneck 27.6857 -2.98863 0.922963
head 12.1728 -1.60118 0.520675
rclavicle -1.07344e-014 -5.96354e-015
rhumerus 3.44178 18.4397 -96.3026
rradius 63.0324
rwrist -20.397
rhand -43.2754 -51.5827
rfingers 7.12502
rthumb -16.1236 279.068
lclavicle -1.07344e-014 -5.96354e-015
lhumerus 4.59077 -16.3136 104.082
lradius 59.3632
lwrist -9.95096
lhand -36.6608 -73.4171
lfingers 7.12502
lthumb -9.74741 -43.6627
rfemur 0 0 0
rtibia 0
rfoot 0 0
rtoes 0
lfemur -11.374 -6.9526 -11.8442
ltibia 21.5547
lfoot -22.1848 16.8756
ltoes -53.7741
415
root -0.726892 18.8328 5.32869 6.93986 -1.3981 -1.53819
lowerback 10.1575 0.612256 0.0289176
upperback 4.70385 0.845115 2.08485
thorax -0.837425 0.39989 2.04952
lowerneck -17.7987 -2.70377 -3.78882
upperneck 27.5823 -2.97613 0.994761
head 12.1158 -1.59068 0.557633
rclavicle 3.18055e-015 1.70955e-014
rhumerus 3.21598 18.6473 -96.3333
rradius 63.1034
rwrist -21.3086
rhand -43.5595 -52.5693
rfingers 7.12502
rthumb -16.3971 278.104
lclavicle 3.18055e-015 1.70955e-014
lhumerus 4.44946 -16.337 104.117
lradius 59.3358
lwrist -9.71774
lhand -36.4996 -73.2665
lfingers 7.12502
lthumb -9.59188 -43.5049
rfemur 0 0 0
rtibia 0
rfoot 0 0
rtoes 0
lfemur -11.3251 -6.96793 -11.8469
ltibia 21.5644
lfoot -22.1904 16.836
ltoes -53.6945
416
root -0.726201 18.8311 5.32841 6.8733 -1.38074 -1.56364
lowerback 10.0037 0.605097 -0.0173677
upperback 4.67614 0.830788 2.10483
thorax -0.782532 0.391934 2.09884
lowerneck -17.8184 -2.68687 -3.75686
upperneck 27.5063 -2.94845 0.954599
head 12.0877 -1.58008 0.541368
rclavicle -2.98177e-015 -2.38542e-015
rhumerus 3.12135 18.8942 -96.2747
rradius 63.0192
rwrist -21.1856
rhand -43.7464 -53.2208
rfingers 7.12502
rthumb -16.5771 277.467
lclavicle -2.98177e-015 -2.38542e-015
lhumerus 4.44671 -16.4515 104.088
lradius 59.2296
lwrist -9.33116
lhand -36.5798 -72.4567
lfingers 7.12502
lthumb -9.66923 -42.6987
rfemur 0 0 0
rtibia 0
rfoot 0 0
rtoes 0
lfemur -11.2493 -6.96046 -11.8264
ltibia 21.5701
lfoot -22.1917 16.7532
ltoes -53.6763
417
root -0.725174 18.8282 5.32645 6.78719 -1.37374 -1.57025
lowerback 9.88426 0.590901 -0.0602397
upperback 4.66506 0.807192 2.10119
thorax -0.728389 0.379497 2.12252
lowerneck -17.9142 -2.6816 -3.70462
upperneck 27.5094 -2.93121 0.880779
head 12.1057 -1.57633 0.506304
rclavicle 8.54774e-015 1.59028e-015
rhumerus 3.02846 19.2396 -96.1227
rradius 63.0156
rwrist -20.6642
rhand -43.3874 -52.9466
rfingers 7.12502
rthumb -16.2314 277.713
lclavicle 8.54774e-015 1.59028e-015
lhumerus 4.45389 -16.6092 103.991
lradius 59.175
lwrist -8.93571
lhand -36.7278 -70.3936
lfingers 7.12502
lthumb -9.81204 -40.6422
rfemur 0 0 0
rtibia 0
rfoot 0 0
rtoes 0
lfemur -11.1627 -6.95672 -11.8304
ltibia 21.5745
lfoot -22.2687 16.6843
ltoes -53.6727
418
root -0.724332 18.8255 5.32427 6.71987 -1.38644 -1.57363
lowerback 9.79194 0.587338 -0.105096
upperback 4.60939 0.798359 2.07864
thorax -0.735612 0.375101 2.12568
lowerneck -18.012 -2.65932 -3.58825
upperneck 27.5734 -2.89982 0.771441
head 12.1458 -1.56448 0.449036
rclavicle -7.7526e-015 -3.57812e-015
rhumerus 2.82533 19.6436 -95.9325
rradius 63.2006
rwrist -20.5866
rhand -42.8437 -52.3369
rfingers 7.12502
rthumb -15.7078 278.281
lclavicle -7.7526e-015 -3.57812e-015
lhumerus 4.32225 -16.7169 103.893
lradius 59.224
lwrist -8.4425
lhand -36.211 -67.3977
lfingers 7.12502
lthumb -9.31344 -37.6234
rfemur 0 0 0
rtibia 0
rfoot 0 0
rtoes 0
lfemur -11.0956 -6.94345 -11.8371
ltibia 21.5701
lfoot -22.2822 16.6487
ltoes -53.6763
419
root -0.72435 18.823 5.32361 6.68009 -1.40421 -1.59291
lowerback 9.67367 0.599968 -0.132843
upperback 4.52717 0.812744 2.05716
thorax -0.756812 0.38275 2.11794
lowerneck -18.023 -2.6384 -3.46319
upperneck 27.5825 -2.88315 0.684701
head 12.1472 -1.55547 0.397675
rclavicle 1.19271e-015 -1.19271e-014
rhumerus 2.59249 20.0404 -95.7273
rradius 63.5122
rwrist -21.0414
rhand -42.2711 -52.3385
rfingers 7.12502
rthumb -15.1563 278.237
lclavicle 1.19271e-015 -1.19271e-014
lhumerus 4.10799 -16.8233 103.765
lradius 59.3807
lwrist -7.71355
lhand -35.1217 -64.4092
lfingers 7.12502
lthumb -8.26223 -34.5907
rfemur 0 0 0
rtibia 0
rfoot 0 0
rtoes 0
lfemur -11.0461 -6.93256 -11.8222
ltibia 21.5532
lfoot -22.2223 16.6642
ltoes -53.7347
420
root -0.723664 18.8205 5.3236 6.66713 -1.42777 -1.59423
lowerback 9.48273 0.617356 -0.151156
upperback 4.45558 0.83347 2.03735
thorax -0.72725 0.393387 2.10666
lowerneck -17.9324 -2.61474 -3.42835
upperneck 27.4783 -2.86506 0.690826
head 12.0865 -1.54317 0.398384
rclavicle -1.32192e-014 -5.1684e-015
rhumerus 2.41658 20.4756 -95.4102
rradius 63.9411
rwrist -21.5534
rhand -41.353 -52.5919
rfingers 7.12502
rthumb -14.2718 277.918
lclavicle -1.32192e-014 -5.1684e-015
lhumerus 3.88486 -17.0499 103.507
lradius 59.657
lwrist -7.11209
lhand -34.0515 -61.3562
lfingers 7.12502
lthumb -7.22927 -31.4997
rfemur 0 0 0
rtibia 0
rfoot 0 0
rtoes 0
lfemur -11.016 -6.92323 -11.8308
ltibia 21.5306
lfoot -22.2439 16.6999
ltoes -53.8118
421
root -0.722081 18.8177 5.32276 6.65873 -1.45375 -1.58242
lowerback 9.29635 0.618991 -0.167704
upperback 4.39663 0.833365 2.01659
thorax -0.686153 0.39352 2.0956
lowerneck -17.9039 -2.57376 -3.39194
upperneck 27.3966 -2.80825 0.656897
head 12.0459 -1.51858 0.388996
rclavicle 2.08724e-015 9.93923e-015
rhumerus 2.2217 20.9978 -94.9655
rradius 64.5676
rwrist -21.4185
rhand -40.438 -52.5528
rfingers 7.12502
rthumb -13.39 277.897
lclavicle 2.08724e-015 9.93923e-015
lhumerus 3.68366 -17.4567 103.047
lradius 60.0236
lwrist -6.9516
lhand -33.3312 -57.7448
lfingers 7.12502
lthumb -6.53398 -27.8656
rfemur 0 0 0
rtibia 0
rfoot 0 0
rtoes 0
lfemur -10.983 -6.87635 -11.856
ltibia 21.5055
lfoot -22.3037 16.6593
ltoes -53.8182
422
root -0.720936 18.8141 5.3217 6.61242 -1.48191 -1.56397
lowerback 9.19133 0.623062 -0.170325
upperback 4.34172 0.837882 1.96895
thorax -0.685017 0.396527 2.04782
lowerneck -17.963 -2.56708 -3.38583
upperneck 27.4027 -2.80415 0.675287
head 12.0603 -1.51361 0.394742
rclavicle 8.94531e-016 -7.95139e-015
rhumerus 1.9245 21.5291 -94.4194
rradius 65.3901
rwrist -19.9246
rhand -39.7398 -52.2264
rfingers 7.12502
rthumb -12.717 278.181
lclavicle 8.94531e-016 -7.95139e-015
lhumerus 3.50127 -18.0925 102.334
lradius 60.4679
lwrist -7.05576
lhand -32.482 -53.7047
lfingers 7.12502
lthumb -5.71414 -23.8017
rfemur 0 0 0
rtibia 0
rfoot 0 0
rtoes 0
lfemur -10.9069 -6.80847 -11.8886
ltibia 21.4832
lfoot -22.3299 16.5826
ltoes -53.8186
423
root -0.720576 18.8115 5.3217 6.53148 -1.51033 -1.56978
lowerback 9.10349 0.63607 -0.150512
upperback 4.28374 0.856288 1.92367
thorax -0.696679 0.406784 1.98838
lowerneck -17.982 -2.57702 -3.37643
upperneck 27.4322 -2.82272 0.68094
head 12.0761 -1.52026 0.392009
rclavicle -2.38542e-015 -5.56597e-015
rhumerus 1.57663 22.1474 -93.6202
rradius 66.276
rwrist -16.9209
rhand -38.7754 -51.852
rfingers 7.12502
rthumb -11.7871 278.5
lclavicle -2.38542e-015 -5.56597e-015
lhumerus 3.25527 -19.0159 101.314
lradius 61.1403
lwrist -7.163
lhand -31.0226 -49.1942
lfingers 7.12502
lthumb -4.30495 -19.258
rfemur 0 0 0
rtibia 0
rfoot 0 0
rtoes 0
lfemur -10.7971 -6.77453 -11.8946
ltibia 21.4681
lfoot -22.3507 16.5485
ltoes -53.907
424
root -0.720529 18.8098 5.32244 6.47471 -1.54568 -1.60026
lowerback 8.96808 0.621095 -0.146791
upperback 4.19068 0.836869 1.90212
thorax -0.717634 0.397976 1.96638
lowerneck -17.8955 -2.50124 -3.2227
upperneck 27.4724 -2.72358 0.537385
head 12.0668 -1.47971 0.328479
rclavicle 4.87022e-015 8.74653e-015
rhumerus 1.35887 23.0319 -92.5265
rradius 67.0079
rwrist -13.3466
rhand -37.1696 -51.235
rfingers 7.12502
rthumb -10.2383 279.034
lclavicle 4.87022e-015 8.74653e-015
lhumerus 2.84213 -20.1089 99.9998
lradius 62.1654
lwrist -7.17822
lhand -29.005 -44.4983
lfingers 7.12502
lthumb -2.35654 -14.5316
rfemur 0 0 0
rtibia 0
rfoot 0 0
rtoes 0
lfemur -10.7085 -6.80796 -11.8688
ltibia 21.4586
lfoot -22.4209 16.5566
ltoes -53.9094
